<svg width="1181" height="2331" viewBox="0 0 1181 2331" fill="none" xmlns="http://www.w3.org/2000/svg">
<path fill-rule="evenodd" clip-rule="evenodd" d="M16 0C7.16344 0 0 7.16345 0 16V2315C0 2323.84 7.16344 2331 16 2331H1165C1173.84 2331 1181 2323.84 1181 2315V16C1181 7.16344 1173.84 0 1165 0H16ZM220 1465C208.954 1465 200 1473.95 200 1485V1837.87C200 1848.91 208.954 1857.87 220 1857.87H530.319C535.624 1857.87 540.711 1859.97 544.461 1863.72L590.939 1910.2C594.69 1913.95 596.797 1919.04 596.797 1924.34V2226.8C596.797 2237.85 605.751 2246.8 616.797 2246.8H961.998C973.043 2246.8 981.998 2237.85 981.998 2226.8V1873.94C981.998 1862.89 973.043 1853.94 961.998 1853.94H667.97C662.665 1853.94 657.578 1851.83 653.828 1848.08L591.059 1785.31C587.308 1781.56 585.201 1776.47 585.201 1771.17V1485C585.201 1473.95 576.246 1465 565.201 1465H220ZM981.99 592C981.99 580.954 973.035 572 961.99 572H616.789C605.743 572 596.789 580.954 596.789 592V878.166C596.789 883.471 594.682 888.558 590.931 892.309L528.098 955.142C524.347 958.893 519.26 961 513.956 961H220C208.954 961 200 969.954 200 981V1333.87C200 1344.91 208.954 1353.87 220 1353.87H565.201C576.246 1353.87 585.201 1344.91 585.201 1333.87V1031.33C585.201 1026.03 587.308 1020.94 591.059 1017.19L637.528 970.723C641.279 966.972 646.366 964.865 651.67 964.865H961.99C973.035 964.865 981.99 955.911 981.99 944.865V592ZM567 64C578.046 64 587 72.9543 587 84V443C587 454.046 578.046 463 567 463H220C208.954 463 200 454.046 200 443V84C200 72.9543 208.954 64 220 64H567Z" fill="#F5F5F5"/>
</svg>
