<svg width="380" height="147" viewBox="0 0 380 147" fill="none" xmlns="http://www.w3.org/2000/svg">
<g clip-path="url(#clip0_355_4263)">
<path d="M189.359 51.9538C187.593 51.9538 186.107 51.5581 184.902 50.7668C183.697 49.9582 182.848 48.8658 182.355 47.4896L185.36 45.7091C186.057 47.5498 187.423 48.4701 189.461 48.4701C190.445 48.4701 191.167 48.2895 191.625 47.9283C192.084 47.567 192.313 47.1111 192.313 46.5606C192.313 45.9241 192.033 45.4338 191.473 45.0897C190.912 44.7285 189.911 44.3414 188.467 43.9285C187.669 43.6877 186.99 43.4469 186.43 43.206C185.887 42.9652 185.335 42.6469 184.775 42.2512C184.231 41.8384 183.815 41.3223 183.527 40.703C183.238 40.0837 183.094 39.3611 183.094 38.5354C183.094 36.9011 183.663 35.6023 184.8 34.6389C185.955 33.6583 187.338 33.168 188.951 33.168C190.394 33.168 191.659 33.5293 192.746 34.2518C193.85 34.9571 194.707 35.9463 195.318 37.2193L192.364 38.9483C191.651 37.4 190.513 36.6258 188.951 36.6258C188.221 36.6258 187.644 36.7979 187.22 37.1419C186.812 37.4688 186.608 37.8989 186.608 38.4322C186.608 38.9999 186.838 39.4643 187.296 39.8256C187.771 40.1697 188.671 40.5481 189.995 40.961C190.539 41.133 190.946 41.2707 191.218 41.3739C191.507 41.4599 191.889 41.6061 192.364 41.8126C192.856 42.0018 193.23 42.1824 193.485 42.3545C193.756 42.5265 194.062 42.7587 194.401 43.0512C194.741 43.3436 194.996 43.6447 195.165 43.9544C195.352 44.264 195.505 44.6425 195.624 45.0897C195.76 45.5198 195.828 45.9929 195.828 46.509C195.828 48.1777 195.225 49.5023 194.019 50.4829C192.831 51.4635 191.277 51.9538 189.359 51.9538Z" fill="black"/>
<path d="M215.543 49.2443C213.743 51.0506 211.553 51.9538 208.972 51.9538C206.391 51.9538 204.201 51.0506 202.401 49.2443C200.619 47.4208 199.727 45.193 199.727 42.5609C199.727 39.9288 200.619 37.7096 202.401 35.9033C204.201 34.0798 206.391 33.168 208.972 33.168C211.553 33.168 213.743 34.0798 215.543 35.9033C217.342 37.7096 218.242 39.9288 218.242 42.5609C218.242 45.193 217.342 47.4208 215.543 49.2443ZM204.872 46.8187C205.975 47.9197 207.342 48.4701 208.972 48.4701C210.602 48.4701 211.969 47.9197 213.072 46.8187C214.176 45.7005 214.728 44.2812 214.728 42.5609C214.728 40.8406 214.176 39.4213 213.072 38.3031C211.969 37.1849 210.602 36.6258 208.972 36.6258C207.342 36.6258 205.975 37.1849 204.872 38.3031C203.768 39.4213 203.216 40.8406 203.216 42.5609C203.216 44.2812 203.768 45.7005 204.872 46.8187Z" fill="black"/>
<path d="M233.903 36.9355H226.772V41.2191H233.7V44.6253H226.772V51.5925H223.258V33.5293H233.903V36.9355Z" fill="black"/>
<path d="M250.803 33.5293V36.9355H245.99V51.5925H242.476V36.9355H237.688V33.5293H250.803Z" fill="black"/>
<path d="M259.03 51.5925L254.039 33.5293H257.732L261.144 46.9219L264.862 33.5293H267.868L271.611 46.9219L275.024 33.5293H278.717L273.725 51.5925H269.727L266.365 39.6708L263.029 51.5925H259.03Z" fill="black"/>
<path d="M293.742 51.5925L292.673 48.3411H285.567L284.497 51.5925H280.703L286.942 33.5293H291.297L297.562 51.5925H293.742ZM286.688 45.0123H291.577L289.133 37.6322L286.688 45.0123Z" fill="black"/>
<path d="M311.619 51.5925L308.029 45.322H305.355V51.5925H301.84V33.5293H308.971C310.618 33.5293 312.018 34.1142 313.173 35.284C314.328 36.4538 314.905 37.8645 314.905 39.516C314.905 40.6342 314.591 41.6749 313.962 42.6383C313.334 43.5845 312.502 44.2984 311.467 44.7801L315.414 51.5925H311.619ZM305.355 36.8581V42.1996H308.971C309.633 42.1996 310.202 41.9416 310.677 41.4255C311.153 40.8922 311.39 40.2557 311.39 39.516C311.39 38.7762 311.153 38.1483 310.677 37.6322C310.202 37.1161 309.633 36.8581 308.971 36.8581H305.355Z" fill="black"/>
<path d="M323.542 48.1863H331.055V51.5925H320.027V33.5293H330.927V36.9355H323.542V40.7804H330.291V44.135H323.542V48.1863Z" fill="black"/>
<path d="M190.35 65.7852C192.795 65.7852 194.832 66.654 196.462 68.3915C198.109 70.129 198.933 72.2708 198.933 74.8169C198.933 77.3629 198.109 79.5047 196.462 81.2422C194.832 82.9797 192.795 83.8485 190.35 83.8485H183.27V65.7852H190.35ZM190.35 80.4423C191.895 80.4423 193.151 79.9262 194.119 78.894C195.087 77.8446 195.571 76.4856 195.571 74.8169C195.571 73.1482 195.087 71.7977 194.119 70.7655C193.151 69.7161 191.895 69.1914 190.35 69.1914H186.785V80.4423H190.35Z" fill="black"/>
<path d="M207.488 80.4423H215.001V83.8485H203.973V65.7852H214.873V69.1914H207.488V73.0363H214.237V76.3909H207.488V80.4423Z" fill="black"/>
<path d="M224.43 83.8485L218.445 65.7852H222.265L226.62 79.6681L230.949 65.7852H234.795L228.785 83.8485H224.43Z" fill="black"/>
<path d="M242.576 80.4423H250.089V83.8485H239.062V65.7852H249.962V69.1914H242.576V73.0363H249.326V76.3909H242.576V80.4423Z" fill="black"/>
<path d="M258.628 80.4423H265.427V83.8485H255.113V65.7852H258.628V80.4423Z" fill="black"/>
<path d="M283.878 81.5C282.078 83.3064 279.887 84.2095 277.306 84.2095C274.726 84.2095 272.535 83.3064 270.736 81.5C268.953 79.6765 268.062 77.4487 268.062 74.8167C268.062 72.1846 268.953 69.9654 270.736 68.1591C272.535 66.3355 274.726 65.4238 277.306 65.4238C279.887 65.4238 282.078 66.3355 283.878 68.1591C285.678 69.9654 286.577 72.1846 286.577 74.8167C286.577 77.4487 285.678 79.6765 283.878 81.5ZM273.206 79.0744C274.31 80.1754 275.676 80.7259 277.306 80.7259C278.936 80.7259 280.304 80.1754 281.408 79.0744C282.511 77.9562 283.062 76.537 283.062 74.8167C283.062 73.0964 282.511 71.6771 281.408 70.5589C280.304 69.4407 278.936 68.8816 277.306 68.8816C275.676 68.8816 274.31 69.4407 273.206 70.5589C272.102 71.6771 271.551 73.0964 271.551 74.8167C271.551 76.537 272.102 77.9562 273.206 79.0744Z" fill="black"/>
<path d="M298.241 65.7852C299.956 65.7852 301.399 66.3701 302.571 67.54C303.742 68.7098 304.328 70.1462 304.328 71.8493C304.328 73.5524 303.742 74.9889 302.571 76.1587C301.399 77.3285 299.956 77.9134 298.241 77.9134H295.109V83.8485H291.594V65.7852H298.241ZM298.241 74.5846C298.988 74.5846 299.608 74.3266 300.1 73.8105C300.593 73.2772 300.839 72.6234 300.839 71.8493C300.839 71.058 300.593 70.4043 300.1 69.8882C299.608 69.3721 298.988 69.114 298.241 69.114H295.109V74.5846H298.241Z" fill="black"/>
<path d="M326.605 65.7852V83.8485H323.116V72.1332L318.099 80.5197H317.691L312.674 72.159V83.8485H309.16V65.7852H312.776L317.895 74.3266L322.989 65.7852H326.605Z" fill="black"/>
<path d="M335.991 80.4423H343.504V83.8485H332.477V65.7852H343.377V69.1914H335.991V73.0363H342.74V76.3909H335.991V80.4423Z" fill="black"/>
<path d="M358.841 65.7852H362.356V83.8485H359.682L352.042 72.8041V83.8485H348.527V65.7852H351.201L358.841 76.8038V65.7852Z" fill="black"/>
<path d="M379.999 65.7852V69.1914H375.186V83.8485H371.671V69.1914H366.883V65.7852H379.999Z" fill="black"/>
<path d="M191.727 116.465C189.045 116.465 186.829 115.562 185.08 113.755C183.331 111.949 182.457 109.721 182.457 107.072C182.457 104.406 183.331 102.178 185.08 100.389C186.829 98.5829 189.045 97.6797 191.727 97.6797C193.34 97.6797 194.826 98.0668 196.184 98.8409C197.559 99.5979 198.629 100.63 199.393 101.937L196.362 103.718C195.921 102.909 195.293 102.281 194.478 101.834C193.663 101.369 192.746 101.137 191.727 101.137C189.995 101.137 188.595 101.688 187.525 102.789C186.472 103.89 185.946 105.317 185.946 107.072C185.946 108.81 186.472 110.229 187.525 111.33C188.595 112.431 189.995 112.981 191.727 112.981C192.746 112.981 193.663 112.758 194.478 112.31C195.31 111.846 195.938 111.218 196.362 110.427L199.393 112.207C198.629 113.515 197.568 114.555 196.21 115.33C194.851 116.087 193.357 116.465 191.727 116.465Z" fill="black"/>
<path d="M218.924 113.755C217.124 115.562 214.934 116.465 212.353 116.465C209.773 116.465 207.582 115.562 205.783 113.755C204 111.932 203.109 109.704 203.109 107.072C203.109 104.44 204 102.221 205.783 100.414C207.582 98.5915 209.773 97.6797 212.353 97.6797C214.934 97.6797 217.124 98.5915 218.924 100.414C220.724 102.221 221.623 104.44 221.623 107.072C221.623 109.704 220.724 111.932 218.924 113.755ZM208.253 111.33C209.357 112.431 210.723 112.981 212.353 112.981C213.983 112.981 215.35 112.431 216.454 111.33C217.557 110.212 218.109 108.792 218.109 107.072C218.109 105.352 217.557 103.933 216.454 102.814C215.35 101.696 213.983 101.137 212.353 101.137C210.723 101.137 209.357 101.696 208.253 102.814C207.149 103.933 206.598 105.352 206.598 107.072C206.598 108.792 207.149 110.212 208.253 111.33Z" fill="black"/>
<path d="M244.087 98.04V116.104H240.598V104.388L235.58 112.775H235.173L230.156 104.414V116.104H226.641V98.04H230.258L235.377 106.582L240.47 98.04H244.087Z" fill="black"/>
<path d="M256.6 98.04C258.315 98.04 259.758 98.6249 260.929 99.7947C262.101 100.965 262.687 102.401 262.687 104.105C262.687 105.808 262.101 107.244 260.929 108.414C259.758 109.584 258.315 110.169 256.6 110.169H253.468V116.104H249.953V98.04H256.6ZM256.6 106.84C257.347 106.84 257.967 106.582 258.459 106.066C258.952 105.532 259.198 104.879 259.198 104.105C259.198 103.313 258.952 102.66 258.459 102.143C257.967 101.627 257.347 101.369 256.6 101.369H253.468V106.84H256.6Z" fill="black"/>
<path d="M277.168 116.104L276.099 112.852H268.993L267.924 116.104H264.129L270.369 98.04H274.724L280.989 116.104H277.168ZM270.114 109.524H275.004L272.559 102.143L270.114 109.524Z" fill="black"/>
<path d="M295.581 98.04H299.095V116.104H296.421L288.781 105.059V116.104H285.266V98.04H287.94L295.581 109.059V98.04Z" fill="black"/>
<path d="M319.055 98.04L312.943 109.059V116.104H309.454V109.059L303.367 98.04H307.34L311.211 105.575L315.082 98.04H319.055Z" fill="black"/>
<path d="M0 116.803V40.0089L20.2556 28.1045V116.803H0Z" fill="#72A1F9"/>
<path fill-rule="evenodd" clip-rule="evenodd" d="M50.3493 56.2589H68.0927V36.5306H50.3493V10.4824L30.0938 22.2908V36.663L30.1132 37.1508C30.108 46.0008 30.0938 56.2589 30.0938 56.2589V89.3515C30.0938 100.276 32.92 107.86 38.5728 112.102C44.3302 116.345 54.1702 117.671 68.0927 116.08V97.4655C64.2195 97.6777 60.9743 97.7307 58.3573 97.6246C55.7403 97.4125 53.7514 96.67 52.3905 95.3972C51.0297 94.1245 50.3493 92.1092 50.3493 89.3515V56.2589Z" fill="#72A1F9"/>
<path d="M2.9375 17.5995C4.98098 19.5838 7.36504 20.5759 10.0897 20.5759C12.8995 20.5759 15.2835 19.5838 17.2418 17.5995C19.2853 15.529 20.3071 13.1134 20.3071 10.3526C20.3071 7.59195 19.2853 5.17633 17.2418 3.10579C15.2835 1.03526 12.8995 0 10.0897 0C7.36504 0 4.98098 1.03526 2.9375 3.10579C0.979167 5.17633 0 7.59195 0 10.3526C0 13.1134 0.979167 15.529 2.9375 17.5995Z" fill="#72A1F9"/>
<path d="M97.6754 146.934H77.375V34.8643H97.6754V146.934Z" fill="#72A1F9"/>
<path fill-rule="evenodd" clip-rule="evenodd" d="M117.658 116.543C139.906 116.543 157.942 98.2686 157.942 75.7261C157.942 53.1836 139.906 34.9092 117.658 34.9092C95.4105 34.9092 77.375 53.1836 77.375 75.7261C77.375 98.2686 95.4105 116.543 117.658 116.543ZM117.658 96.1345C128.782 96.1345 137.8 86.9973 137.8 75.7261C137.8 64.4548 128.782 55.3177 117.658 55.3177C106.534 55.3177 97.5167 64.4548 97.5167 75.7261C97.5167 86.9973 106.534 96.1345 117.658 96.1345Z" fill="#72A1F9"/>
</g>
<defs>
<clipPath id="clip0_355_4263">
<rect width="380" height="147" fill="white"/>
</clipPath>
</defs>
</svg>
