<svg width="326" height="92" viewBox="0 0 326 92" fill="none" xmlns="http://www.w3.org/2000/svg">
<g clip-path="url(#clip0_355_4297)">
<path d="M22.937 0.000976562C10.27 0.000976562 0 10.2977 0 23.0007V69.0018C0 81.7042 10.27 92.001 22.937 92.001H68.8122C81.4797 92.001 91.7498 81.7042 91.7498 69.0018V0.000976562H22.937Z" fill="#B1EC52"/>
<path d="M25.0756 36.7376C24.3252 33.4473 27.5991 30.5359 31.8338 30.5359C35.6484 30.5359 39.4719 31.3935 40.9268 36.7265H45.8166V44.8652C39.7201 39.8401 26.5029 42.993 25.0756 36.7376ZM75.8137 34.4844H64.7984L54.3193 45.9928V23.0002H45.8166V28.5713C45.5392 28.2121 45.2467 27.8553 44.9191 27.507C41.8271 24.2249 37.3727 22.5609 31.6773 22.5609C25.0909 22.5609 21.3462 25.5168 19.3642 27.996C16.9025 31.0738 15.8034 35.275 16.5641 38.6979C18.5344 47.5591 26.7343 48.9742 32.7582 49.7595C37.5139 50.3799 42.0637 51.2455 41.943 55.4962C41.817 59.9073 36.8582 60.9919 33.6032 60.9919C25.1259 60.9919 24.8399 54.7086 24.8399 54.7086H15.7227C15.8559 57.0682 16.567 60.8563 19.4638 64.107C22.6358 67.6687 27.3932 69.4736 33.6032 69.4736C38.3669 69.4736 42.7064 67.9176 45.8166 65.1542V68.9518H54.3193V58.0981L57.3276 54.7985L65.9156 68.9518H75.8107L63.3135 48.2224L75.8137 34.4844Z" fill="#424B52"/>
<path d="M130.09 43.5842C129.853 43.1543 129.52 42.7245 129.187 42.2953C128.805 41.9136 128.377 41.5319 127.807 41.1976C127.283 40.8634 126.617 40.6254 125.855 40.3868C125.093 40.1954 124.237 40.1 123.19 40.1C122.762 40.1 122.239 40.1482 121.667 40.2429C121.096 40.3868 120.477 40.5771 119.859 40.8634C119.24 41.1976 118.621 41.6276 118.003 42.153C117.432 42.6771 116.861 43.3938 116.432 44.252C115.909 45.1593 115.528 46.208 115.242 47.4488C114.957 48.6895 114.814 50.1689 114.814 51.8871C114.814 53.7482 115.005 55.3706 115.385 56.85C115.766 58.3301 116.337 59.571 117.05 60.5723C117.765 61.575 118.669 62.3377 119.716 62.8633C120.715 63.388 121.905 63.6742 123.19 63.6742C124.713 63.6742 125.903 63.4354 126.855 63.0062C127.807 62.5291 128.568 61.956 129.139 61.2882C129.71 60.6212 130.139 59.9045 130.376 59.1885C130.661 58.4733 130.9 57.8047 131.042 57.2799H138.133C137.753 59.4271 137.134 61.2882 136.23 62.8633C135.325 64.4376 134.231 65.7257 132.946 66.776C131.661 67.8262 130.233 68.5897 128.615 69.1145C126.997 69.6399 125.284 69.8779 123.476 69.8779C120.953 69.8779 118.669 69.4488 116.718 68.5897C114.767 67.778 113.101 66.5381 111.769 65.0112C110.436 63.4354 109.436 61.5268 108.722 59.2842C108.009 57.0893 107.676 54.6079 107.676 51.8871C107.676 49.7879 107.866 47.8788 108.294 46.1606C108.675 44.4425 109.247 42.9157 109.96 41.5801C110.674 40.2429 111.53 39.1459 112.53 38.1432C113.482 37.1886 114.528 36.3777 115.719 35.7574C116.861 35.1369 118.051 34.6597 119.335 34.326C120.62 34.0392 121.905 33.8962 123.19 33.8962C125.046 33.8962 126.712 34.0881 128.139 34.4691C129.567 34.899 130.852 35.3762 131.946 36.0442C133.041 36.7119 133.945 37.4279 134.707 38.2863C135.468 39.1459 136.134 40.005 136.611 40.8634C137.087 41.7705 137.42 42.6771 137.706 43.536C137.943 44.4425 138.086 45.2542 138.133 46.0176H130.995L130.661 44.8725C130.519 44.4425 130.329 44.0616 130.09 43.5842Z" fill="#424B52"/>
<path d="M157.142 43.6323H165.9L155.43 54.1787L166.328 69.0195H157.761L150.337 58.2819L147.672 61.0029V69.0195H141.105V43.6323H147.672V53.2723L157.142 43.6323Z" fill="#424B52"/>
<path d="M172.295 59.1412C172.486 60.0951 172.819 60.9542 173.342 61.6701C173.818 62.4336 174.437 63.0539 175.198 63.4838C175.96 63.9137 176.912 64.1516 178.054 64.1516C179.243 64.1516 180.243 63.9137 181.004 63.4838C181.766 63.0539 182.385 62.4336 182.86 61.7183C183.336 61.0024 183.67 60.1915 183.86 59.2361C184.05 58.2814 184.145 57.3276 184.145 56.3255C184.145 55.3233 184.05 54.3687 183.86 53.4147C183.67 52.4601 183.336 51.601 182.86 50.8858C182.385 50.1691 181.766 49.597 181.004 49.1196C180.243 48.6897 179.243 48.4993 178.054 48.4993C176.912 48.4993 175.96 48.7379 175.198 49.1678C174.437 49.597 173.818 50.2165 173.342 50.9333C172.819 51.6967 172.486 52.5076 172.295 53.4622C172.105 54.4162 171.962 55.3708 171.962 56.3255C171.962 57.2801 172.105 58.2339 172.295 59.1412ZM166.013 50.9333C166.585 49.2627 167.441 47.8315 168.583 46.6381C169.726 45.4455 171.058 44.5384 172.676 43.8699C174.293 43.2019 176.055 42.8684 178.054 42.8684C180.1 42.8684 181.909 43.2019 183.526 43.8699C185.144 44.5384 186.477 45.4455 187.571 46.6381C188.667 47.8315 189.524 49.2627 190.142 50.9333C190.713 52.5565 190.998 54.3687 190.998 56.3255C190.998 58.2814 190.713 60.0951 190.142 61.7183C189.524 63.3882 188.667 64.8196 187.571 66.0127C186.477 67.1579 185.144 68.1126 183.526 68.7812C181.909 69.4489 180.1 69.7832 178.054 69.7832C176.055 69.7832 174.293 69.4489 172.676 68.7812C171.058 68.1126 169.726 67.1579 168.583 66.0127C167.441 64.8196 166.585 63.3882 166.013 61.7183C165.442 60.0951 165.109 58.2814 165.109 56.3255C165.109 54.3687 165.442 52.5565 166.013 50.9333Z" fill="#424B52"/>
<path d="M203.372 48.9759L203.279 53.7009C203.182 56.3728 202.992 58.7113 202.754 60.7156C202.469 62.7204 202.04 64.3904 201.47 65.7259C200.851 67.063 200.043 68.0644 199.042 68.7812C198.043 69.4489 196.711 69.7832 195.14 69.7832C194.378 69.7832 193.759 69.735 193.189 69.6875C192.617 69.5919 192.189 69.4489 191.809 69.3051V63.7699C192.047 63.8648 192.332 63.9612 192.666 64.0567C192.997 64.1041 193.379 64.1516 193.855 64.1516C194.378 64.1516 194.807 64.0087 195.187 63.6744C195.569 63.3882 195.902 62.8635 196.187 62.0526C196.472 61.2402 196.663 60.1425 196.853 58.7113C196.996 57.2801 197.091 55.4664 197.14 53.2243L197.33 43.6318H217.697V69.019H211.178V48.9759H203.372Z" fill="#424B52"/>
<path d="M238.53 43.6323H247.285L236.815 54.1787L247.714 69.0195H239.148L231.723 58.2819L229.059 61.0029V69.0195H222.492V43.6323H229.059V53.2723L238.53 43.6323Z" fill="#424B52"/>
<path d="M253.683 59.1412C253.873 60.0951 254.206 60.9542 254.73 61.6701C255.205 62.4336 255.824 63.0539 256.586 63.4838C257.348 63.9137 258.298 64.1516 259.442 64.1516C260.631 64.1516 261.63 63.9137 262.392 63.4838C263.154 63.0539 263.773 62.4336 264.248 61.7183C264.725 61.0024 265.057 60.1915 265.247 59.2361C265.439 58.2814 265.534 57.3276 265.534 56.3255C265.534 55.3233 265.439 54.3687 265.247 53.4147C265.057 52.4601 264.725 51.601 264.248 50.8858C263.773 50.1691 263.154 49.597 262.392 49.1196C261.63 48.6897 260.631 48.4993 259.442 48.4993C258.298 48.4993 257.348 48.7379 256.586 49.1678C255.824 49.597 255.205 50.2165 254.73 50.9333C254.206 51.6967 253.873 52.5076 253.683 53.4622C253.493 54.4162 253.349 55.3708 253.349 56.3255C253.349 57.2801 253.493 58.2339 253.683 59.1412ZM247.402 50.9333C247.972 49.2627 248.829 47.8315 249.971 46.6381C251.113 45.4455 252.446 44.5384 254.063 43.8699C255.682 43.2019 257.443 42.8684 259.442 42.8684C261.488 42.8684 263.298 43.2019 264.915 43.8699C266.532 44.5384 267.865 45.4455 268.96 46.6381C270.054 47.8315 270.911 49.2627 271.53 50.9333C272.1 52.5565 272.385 54.3687 272.385 56.3255C272.385 58.2814 272.1 60.0951 271.53 61.7183C270.911 63.3882 270.054 64.8196 268.96 66.0127C267.865 67.1579 266.532 68.1126 264.915 68.7812C263.298 69.4489 261.488 69.7832 259.442 69.7832C257.443 69.7832 255.682 69.4489 254.063 68.7812C252.446 68.1126 251.113 67.1579 249.971 66.0127C248.829 64.8196 247.972 63.3882 247.402 61.7183C246.83 60.0951 246.496 58.2814 246.496 56.3255C246.496 54.3687 246.83 52.5565 247.402 50.9333Z" fill="#424B52"/>
<path d="M289.404 64.0572C289.976 63.8178 290.405 63.5792 290.738 63.2457C291.023 62.9595 291.262 62.6247 291.357 62.2435C291.452 61.8612 291.498 61.5275 291.498 61.1933C291.498 60.573 291.452 60.0481 291.262 59.6191C291.118 59.2367 290.88 58.9024 290.5 58.6644C290.166 58.3783 289.691 58.2344 289.119 58.139C288.549 58.044 287.882 57.9958 287.073 57.9958H282.029V64.3427H287.073C288.025 64.3427 288.834 64.2478 289.404 64.0572ZM288.977 53.4152C289.453 53.2723 289.833 53.1284 290.12 52.8906C290.405 52.6987 290.641 52.4132 290.738 52.0782C290.88 51.7447 290.928 51.3147 290.928 50.8863C290.928 50.5038 290.88 50.1696 290.738 49.8361C290.641 49.5493 290.405 49.2632 290.12 49.0252C289.881 48.8333 289.499 48.6427 289.024 48.4998C288.549 48.3559 287.977 48.3084 287.263 48.3084H282.029V53.6058H287.073C287.833 53.6058 288.452 53.5109 288.977 53.4152ZM291.927 43.9184C292.974 44.1572 293.926 44.4922 294.782 44.9681C295.592 45.4935 296.257 46.1613 296.734 47.0211C297.209 47.8795 297.448 48.9764 297.448 50.3134C297.448 51.0769 297.4 51.7447 297.21 52.2702C297.068 52.8424 296.829 53.3197 296.544 53.7015C296.257 54.1312 295.926 54.4649 295.592 54.7035C295.21 54.9895 294.878 55.2289 294.45 55.4195C295.736 55.8494 296.686 56.5646 297.353 57.5667C298.018 58.5687 298.352 59.7146 298.352 61.0978C298.352 62.291 298.162 63.3887 297.782 64.3427C297.353 65.298 296.781 66.1564 296.021 66.8241C295.259 67.5401 294.353 68.065 293.259 68.4474C292.166 68.8284 290.975 69.0195 289.643 69.0195H275.461V43.6323H288.549C289.738 43.6323 290.833 43.7273 291.927 43.9184Z" fill="#424B52"/>
<path d="M307.3 59.1412C307.49 60.0951 307.824 60.9542 308.347 61.6701C308.822 62.4336 309.441 63.0539 310.203 63.4838C310.965 63.9137 311.915 64.1516 313.06 64.1516C314.248 64.1516 315.247 63.9137 316.009 63.4838C316.771 63.0539 317.39 62.4336 317.865 61.7183C318.342 61.0024 318.674 60.1915 318.864 59.2361C319.056 58.2814 319.151 57.3276 319.151 56.3255C319.151 55.3233 319.056 54.3687 318.864 53.4147C318.674 52.4601 318.342 51.601 317.865 50.8858C317.39 50.1691 316.771 49.597 316.009 49.1196C315.247 48.6897 314.248 48.4993 313.06 48.4993C311.915 48.4993 310.965 48.7379 310.203 49.1678C309.441 49.597 308.822 50.2165 308.347 50.9333C307.824 51.6967 307.49 52.5076 307.3 53.4622C307.11 54.4162 306.967 55.3708 306.967 56.3255C306.967 57.2801 307.11 58.2339 307.3 59.1412ZM301.019 50.9333C301.589 49.2627 302.446 47.8315 303.588 46.6381C304.731 45.4455 306.063 44.5384 307.68 43.8699C309.298 43.2019 311.06 42.8684 313.06 42.8684C315.105 42.8684 316.913 43.2019 318.532 43.8699C320.149 44.5384 321.482 45.4455 322.575 46.6381C323.671 47.8315 324.528 49.2627 325.147 50.9333C325.717 52.5565 326.002 54.3687 326.002 56.3255C326.002 58.2814 325.717 60.0951 325.147 61.7183C324.528 63.3882 323.671 64.8196 322.575 66.0127C321.482 67.1579 320.149 68.1126 318.532 68.7812C316.913 69.4489 315.105 69.7832 313.06 69.7832C311.06 69.7832 309.298 69.4489 307.68 68.7812C306.063 68.1126 304.731 67.1579 303.588 66.0127C302.446 64.8196 301.589 63.3882 301.019 61.7183C300.447 60.0951 300.113 58.2814 300.113 56.3255C300.113 54.3687 300.447 52.5565 301.019 50.9333Z" fill="#424B52"/>
</g>
<defs>
<clipPath id="clip0_355_4297">
<rect width="326" height="92" fill="white"/>
</clipPath>
</defs>
</svg>
